<?xml version="1.0" encoding="utf-8"?>
<!-- Generator: Adobe Illustrator 23.0.4, SVG Export Plug-In . SVG Version: 6.00 Build 0)  -->
<svg version="1.1" id="Layer_1" xmlns="http://www.w3.org/2000/svg" xmlns:xlink="http://www.w3.org/1999/xlink" x="0px" y="0px"
	 viewBox="0 0 415 298" style="enable-background:new 0 0 415 298;" xml:space="preserve">
<style type="text/css">
	.st0{fill:#E0E0E0;}
</style>
<g id="Repeat_Grid_1">
	<g transform="translate(-318 -1827)">
		<circle id="Ellipse_38" class="st0" cx="320" cy="1829" r="2"/>
	</g>
	<g transform="translate(-294 -1827)">
		<circle id="Ellipse_38-2" class="st0" cx="320" cy="1829" r="2"/>
	</g>
	<g transform="translate(-270 -1827)">
		<circle id="Ellipse_38-3" class="st0" cx="320" cy="1829" r="2"/>
	</g>
	<g transform="translate(-246 -1827)">
		<circle id="Ellipse_38-4" class="st0" cx="320" cy="1829" r="2"/>
	</g>
	<g transform="translate(-222 -1827)">
		<circle id="Ellipse_38-5" class="st0" cx="320" cy="1829" r="2"/>
	</g>
	<g transform="translate(-198 -1827)">
		<circle id="Ellipse_38-6" class="st0" cx="320" cy="1829" r="2"/>
	</g>
	<g transform="translate(-174 -1827)">
		<circle id="Ellipse_38-7" class="st0" cx="320" cy="1829" r="2"/>
	</g>
	<g transform="translate(-150 -1827)">
		<circle id="Ellipse_38-8" class="st0" cx="320" cy="1829" r="2"/>
	</g>
	<g transform="translate(-126 -1827)">
		<circle id="Ellipse_38-9" class="st0" cx="320" cy="1829" r="2"/>
	</g>
	<g transform="translate(-102 -1827)">
		<circle id="Ellipse_38-10" class="st0" cx="320" cy="1829" r="2"/>
	</g>
	<g transform="translate(-78 -1827)">
		<circle id="Ellipse_38-11" class="st0" cx="320" cy="1829" r="2"/>
	</g>
	<g transform="translate(-54 -1827)">
		<circle id="Ellipse_38-12" class="st0" cx="320" cy="1829" r="2"/>
	</g>
	<g transform="translate(-30 -1827)">
		<circle id="Ellipse_38-13" class="st0" cx="320" cy="1829" r="2"/>
	</g>
	<g transform="translate(-6 -1827)">
		<circle id="Ellipse_38-14" class="st0" cx="320" cy="1829" r="2"/>
	</g>
	<g transform="translate(18 -1827)">
		<circle id="Ellipse_38-15" class="st0" cx="320" cy="1829" r="2"/>
	</g>
	<g transform="translate(42 -1827)">
		<circle id="Ellipse_38-16" class="st0" cx="320" cy="1829" r="2"/>
	</g>
	<g transform="translate(66 -1827)">
		<circle id="Ellipse_38-17" class="st0" cx="320" cy="1829" r="2"/>
	</g>
	<g transform="translate(90 -1827)">
		<circle id="Ellipse_38-18" class="st0" cx="320" cy="1829" r="2"/>
	</g>
	<g transform="translate(-318 -1803)">
		<circle id="Ellipse_38-19" class="st0" cx="320" cy="1829" r="2"/>
	</g>
	<g transform="translate(-294 -1803)">
		<circle id="Ellipse_38-20" class="st0" cx="320" cy="1829" r="2"/>
	</g>
	<g transform="translate(-270 -1803)">
		<circle id="Ellipse_38-21" class="st0" cx="320" cy="1829" r="2"/>
	</g>
	<g transform="translate(-246 -1803)">
		<circle id="Ellipse_38-22" class="st0" cx="320" cy="1829" r="2"/>
	</g>
	<g transform="translate(-222 -1803)">
		<circle id="Ellipse_38-23" class="st0" cx="320" cy="1829" r="2"/>
	</g>
	<g transform="translate(-198 -1803)">
		<circle id="Ellipse_38-24" class="st0" cx="320" cy="1829" r="2"/>
	</g>
	<g transform="translate(-174 -1803)">
		<circle id="Ellipse_38-25" class="st0" cx="320" cy="1829" r="2"/>
	</g>
	<g transform="translate(-150 -1803)">
		<circle id="Ellipse_38-26" class="st0" cx="320" cy="1829" r="2"/>
	</g>
	<g transform="translate(-126 -1803)">
		<circle id="Ellipse_38-27" class="st0" cx="320" cy="1829" r="2"/>
	</g>
	<g transform="translate(-102 -1803)">
		<circle id="Ellipse_38-28" class="st0" cx="320" cy="1829" r="2"/>
	</g>
	<g transform="translate(-78 -1803)">
		<circle id="Ellipse_38-29" class="st0" cx="320" cy="1829" r="2"/>
	</g>
	<g transform="translate(-54 -1803)">
		<circle id="Ellipse_38-30" class="st0" cx="320" cy="1829" r="2"/>
	</g>
	<g transform="translate(-30 -1803)">
		<circle id="Ellipse_38-31" class="st0" cx="320" cy="1829" r="2"/>
	</g>
	<g transform="translate(-6 -1803)">
		<circle id="Ellipse_38-32" class="st0" cx="320" cy="1829" r="2"/>
	</g>
	<g transform="translate(18 -1803)">
		<circle id="Ellipse_38-33" class="st0" cx="320" cy="1829" r="2"/>
	</g>
	<g transform="translate(42 -1803)">
		<circle id="Ellipse_38-34" class="st0" cx="320" cy="1829" r="2"/>
	</g>
	<g transform="translate(66 -1803)">
		<circle id="Ellipse_38-35" class="st0" cx="320" cy="1829" r="2"/>
	</g>
	<g transform="translate(90 -1803)">
		<circle id="Ellipse_38-36" class="st0" cx="320" cy="1829" r="2"/>
	</g>
	<g transform="translate(-318 -1779)">
		<circle id="Ellipse_38-37" class="st0" cx="320" cy="1829" r="2"/>
	</g>
	<g transform="translate(-294 -1779)">
		<circle id="Ellipse_38-38" class="st0" cx="320" cy="1829" r="2"/>
	</g>
	<g transform="translate(-270 -1779)">
		<circle id="Ellipse_38-39" class="st0" cx="320" cy="1829" r="2"/>
	</g>
	<g transform="translate(-246 -1779)">
		<circle id="Ellipse_38-40" class="st0" cx="320" cy="1829" r="2"/>
	</g>
	<g transform="translate(-222 -1779)">
		<circle id="Ellipse_38-41" class="st0" cx="320" cy="1829" r="2"/>
	</g>
	<g transform="translate(-198 -1779)">
		<circle id="Ellipse_38-42" class="st0" cx="320" cy="1829" r="2"/>
	</g>
	<g transform="translate(-174 -1779)">
		<circle id="Ellipse_38-43" class="st0" cx="320" cy="1829" r="2"/>
	</g>
	<g transform="translate(-150 -1779)">
		<circle id="Ellipse_38-44" class="st0" cx="320" cy="1829" r="2"/>
	</g>
	<g transform="translate(-126 -1779)">
		<circle id="Ellipse_38-45" class="st0" cx="320" cy="1829" r="2"/>
	</g>
	<g transform="translate(-102 -1779)">
		<circle id="Ellipse_38-46" class="st0" cx="320" cy="1829" r="2"/>
	</g>
	<g transform="translate(-78 -1779)">
		<circle id="Ellipse_38-47" class="st0" cx="320" cy="1829" r="2"/>
	</g>
	<g transform="translate(-54 -1779)">
		<circle id="Ellipse_38-48" class="st0" cx="320" cy="1829" r="2"/>
	</g>
	<g transform="translate(-30 -1779)">
		<circle id="Ellipse_38-49" class="st0" cx="320" cy="1829" r="2"/>
	</g>
	<g transform="translate(-6 -1779)">
		<circle id="Ellipse_38-50" class="st0" cx="320" cy="1829" r="2"/>
	</g>
	<g transform="translate(18 -1779)">
		<circle id="Ellipse_38-51" class="st0" cx="320" cy="1829" r="2"/>
	</g>
	<g transform="translate(42 -1779)">
		<circle id="Ellipse_38-52" class="st0" cx="320" cy="1829" r="2"/>
	</g>
	<g transform="translate(66 -1779)">
		<circle id="Ellipse_38-53" class="st0" cx="320" cy="1829" r="2"/>
	</g>
	<g transform="translate(90 -1779)">
		<circle id="Ellipse_38-54" class="st0" cx="320" cy="1829" r="2"/>
	</g>
	<g transform="translate(-318 -1755)">
		<circle id="Ellipse_38-55" class="st0" cx="320" cy="1829" r="2"/>
	</g>
	<g transform="translate(-294 -1755)">
		<circle id="Ellipse_38-56" class="st0" cx="320" cy="1829" r="2"/>
	</g>
	<g transform="translate(-270 -1755)">
		<circle id="Ellipse_38-57" class="st0" cx="320" cy="1829" r="2"/>
	</g>
	<g transform="translate(-246 -1755)">
		<circle id="Ellipse_38-58" class="st0" cx="320" cy="1829" r="2"/>
	</g>
	<g transform="translate(-222 -1755)">
		<circle id="Ellipse_38-59" class="st0" cx="320" cy="1829" r="2"/>
	</g>
	<g transform="translate(-198 -1755)">
		<circle id="Ellipse_38-60" class="st0" cx="320" cy="1829" r="2"/>
	</g>
	<g transform="translate(-174 -1755)">
		<circle id="Ellipse_38-61" class="st0" cx="320" cy="1829" r="2"/>
	</g>
	<g transform="translate(-150 -1755)">
		<circle id="Ellipse_38-62" class="st0" cx="320" cy="1829" r="2"/>
	</g>
	<g transform="translate(-126 -1755)">
		<circle id="Ellipse_38-63" class="st0" cx="320" cy="1829" r="2"/>
	</g>
	<g transform="translate(-102 -1755)">
		<circle id="Ellipse_38-64" class="st0" cx="320" cy="1829" r="2"/>
	</g>
	<g transform="translate(-78 -1755)">
		<circle id="Ellipse_38-65" class="st0" cx="320" cy="1829" r="2"/>
	</g>
	<g transform="translate(-54 -1755)">
		<circle id="Ellipse_38-66" class="st0" cx="320" cy="1829" r="2"/>
	</g>
	<g transform="translate(-30 -1755)">
		<circle id="Ellipse_38-67" class="st0" cx="320" cy="1829" r="2"/>
	</g>
	<g transform="translate(-6 -1755)">
		<circle id="Ellipse_38-68" class="st0" cx="320" cy="1829" r="2"/>
	</g>
	<g transform="translate(18 -1755)">
		<circle id="Ellipse_38-69" class="st0" cx="320" cy="1829" r="2"/>
	</g>
	<g transform="translate(42 -1755)">
		<circle id="Ellipse_38-70" class="st0" cx="320" cy="1829" r="2"/>
	</g>
	<g transform="translate(66 -1755)">
		<circle id="Ellipse_38-71" class="st0" cx="320" cy="1829" r="2"/>
	</g>
	<g transform="translate(90 -1755)">
		<circle id="Ellipse_38-72" class="st0" cx="320" cy="1829" r="2"/>
	</g>
	<g transform="translate(-318 -1731)">
		<circle id="Ellipse_38-73" class="st0" cx="320" cy="1829" r="2"/>
	</g>
	<g transform="translate(-294 -1731)">
		<circle id="Ellipse_38-74" class="st0" cx="320" cy="1829" r="2"/>
	</g>
	<g transform="translate(-270 -1731)">
		<circle id="Ellipse_38-75" class="st0" cx="320" cy="1829" r="2"/>
	</g>
	<g transform="translate(-246 -1731)">
		<circle id="Ellipse_38-76" class="st0" cx="320" cy="1829" r="2"/>
	</g>
	<g transform="translate(-222 -1731)">
		<circle id="Ellipse_38-77" class="st0" cx="320" cy="1829" r="2"/>
	</g>
	<g transform="translate(-198 -1731)">
		<circle id="Ellipse_38-78" class="st0" cx="320" cy="1829" r="2"/>
	</g>
	<g transform="translate(-174 -1731)">
		<circle id="Ellipse_38-79" class="st0" cx="320" cy="1829" r="2"/>
	</g>
	<g transform="translate(-150 -1731)">
		<circle id="Ellipse_38-80" class="st0" cx="320" cy="1829" r="2"/>
	</g>
	<g transform="translate(-126 -1731)">
		<circle id="Ellipse_38-81" class="st0" cx="320" cy="1829" r="2"/>
	</g>
	<g transform="translate(-102 -1731)">
		<circle id="Ellipse_38-82" class="st0" cx="320" cy="1829" r="2"/>
	</g>
	<g transform="translate(-78 -1731)">
		<circle id="Ellipse_38-83" class="st0" cx="320" cy="1829" r="2"/>
	</g>
	<g transform="translate(-54 -1731)">
		<circle id="Ellipse_38-84" class="st0" cx="320" cy="1829" r="2"/>
	</g>
	<g transform="translate(-30 -1731)">
		<circle id="Ellipse_38-85" class="st0" cx="320" cy="1829" r="2"/>
	</g>
	<g transform="translate(-6 -1731)">
		<circle id="Ellipse_38-86" class="st0" cx="320" cy="1829" r="2"/>
	</g>
	<g transform="translate(18 -1731)">
		<circle id="Ellipse_38-87" class="st0" cx="320" cy="1829" r="2"/>
	</g>
	<g transform="translate(42 -1731)">
		<circle id="Ellipse_38-88" class="st0" cx="320" cy="1829" r="2"/>
	</g>
	<g transform="translate(66 -1731)">
		<circle id="Ellipse_38-89" class="st0" cx="320" cy="1829" r="2"/>
	</g>
	<g transform="translate(90 -1731)">
		<circle id="Ellipse_38-90" class="st0" cx="320" cy="1829" r="2"/>
	</g>
	<g transform="translate(-318 -1707)">
		<circle id="Ellipse_38-91" class="st0" cx="320" cy="1829" r="2"/>
	</g>
	<g transform="translate(-294 -1707)">
		<circle id="Ellipse_38-92" class="st0" cx="320" cy="1829" r="2"/>
	</g>
	<g transform="translate(-270 -1707)">
		<circle id="Ellipse_38-93" class="st0" cx="320" cy="1829" r="2"/>
	</g>
	<g transform="translate(-246 -1707)">
		<circle id="Ellipse_38-94" class="st0" cx="320" cy="1829" r="2"/>
	</g>
	<g transform="translate(-222 -1707)">
		<circle id="Ellipse_38-95" class="st0" cx="320" cy="1829" r="2"/>
	</g>
	<g transform="translate(-198 -1707)">
		<circle id="Ellipse_38-96" class="st0" cx="320" cy="1829" r="2"/>
	</g>
	<g transform="translate(-174 -1707)">
		<circle id="Ellipse_38-97" class="st0" cx="320" cy="1829" r="2"/>
	</g>
	<g transform="translate(-150 -1707)">
		<circle id="Ellipse_38-98" class="st0" cx="320" cy="1829" r="2"/>
	</g>
	<g transform="translate(-126 -1707)">
		<circle id="Ellipse_38-99" class="st0" cx="320" cy="1829" r="2"/>
	</g>
	<g transform="translate(-102 -1707)">
		<circle id="Ellipse_38-100" class="st0" cx="320" cy="1829" r="2"/>
	</g>
	<g transform="translate(-78 -1707)">
		<circle id="Ellipse_38-101" class="st0" cx="320" cy="1829" r="2"/>
	</g>
	<g transform="translate(-54 -1707)">
		<circle id="Ellipse_38-102" class="st0" cx="320" cy="1829" r="2"/>
	</g>
	<g transform="translate(-30 -1707)">
		<circle id="Ellipse_38-103" class="st0" cx="320" cy="1829" r="2"/>
	</g>
	<g transform="translate(-6 -1707)">
		<circle id="Ellipse_38-104" class="st0" cx="320" cy="1829" r="2"/>
	</g>
	<g transform="translate(18 -1707)">
		<circle id="Ellipse_38-105" class="st0" cx="320" cy="1829" r="2"/>
	</g>
	<g transform="translate(42 -1707)">
		<circle id="Ellipse_38-106" class="st0" cx="320" cy="1829" r="2"/>
	</g>
	<g transform="translate(66 -1707)">
		<circle id="Ellipse_38-107" class="st0" cx="320" cy="1829" r="2"/>
	</g>
	<g transform="translate(90 -1707)">
		<circle id="Ellipse_38-108" class="st0" cx="320" cy="1829" r="2"/>
	</g>
	<g transform="translate(-318 -1683)">
		<circle id="Ellipse_38-109" class="st0" cx="320" cy="1829" r="2"/>
	</g>
	<g transform="translate(-294 -1683)">
		<circle id="Ellipse_38-110" class="st0" cx="320" cy="1829" r="2"/>
	</g>
	<g transform="translate(-270 -1683)">
		<circle id="Ellipse_38-111" class="st0" cx="320" cy="1829" r="2"/>
	</g>
	<g transform="translate(-246 -1683)">
		<circle id="Ellipse_38-112" class="st0" cx="320" cy="1829" r="2"/>
	</g>
	<g transform="translate(-222 -1683)">
		<circle id="Ellipse_38-113" class="st0" cx="320" cy="1829" r="2"/>
	</g>
	<g transform="translate(-198 -1683)">
		<circle id="Ellipse_38-114" class="st0" cx="320" cy="1829" r="2"/>
	</g>
	<g transform="translate(-174 -1683)">
		<circle id="Ellipse_38-115" class="st0" cx="320" cy="1829" r="2"/>
	</g>
	<g transform="translate(-150 -1683)">
		<circle id="Ellipse_38-116" class="st0" cx="320" cy="1829" r="2"/>
	</g>
	<g transform="translate(-126 -1683)">
		<circle id="Ellipse_38-117" class="st0" cx="320" cy="1829" r="2"/>
	</g>
	<g transform="translate(-102 -1683)">
		<circle id="Ellipse_38-118" class="st0" cx="320" cy="1829" r="2"/>
	</g>
	<g transform="translate(-78 -1683)">
		<circle id="Ellipse_38-119" class="st0" cx="320" cy="1829" r="2"/>
	</g>
	<g transform="translate(-54 -1683)">
		<circle id="Ellipse_38-120" class="st0" cx="320" cy="1829" r="2"/>
	</g>
	<g transform="translate(-30 -1683)">
		<circle id="Ellipse_38-121" class="st0" cx="320" cy="1829" r="2"/>
	</g>
	<g transform="translate(-6 -1683)">
		<circle id="Ellipse_38-122" class="st0" cx="320" cy="1829" r="2"/>
	</g>
	<g transform="translate(18 -1683)">
		<circle id="Ellipse_38-123" class="st0" cx="320" cy="1829" r="2"/>
	</g>
	<g transform="translate(42 -1683)">
		<circle id="Ellipse_38-124" class="st0" cx="320" cy="1829" r="2"/>
	</g>
	<g transform="translate(66 -1683)">
		<circle id="Ellipse_38-125" class="st0" cx="320" cy="1829" r="2"/>
	</g>
	<g transform="translate(90 -1683)">
		<circle id="Ellipse_38-126" class="st0" cx="320" cy="1829" r="2"/>
	</g>
	<g transform="translate(-318 -1659)">
		<circle id="Ellipse_38-127" class="st0" cx="320" cy="1829" r="2"/>
	</g>
	<g transform="translate(-294 -1659)">
		<circle id="Ellipse_38-128" class="st0" cx="320" cy="1829" r="2"/>
	</g>
	<g transform="translate(-270 -1659)">
		<circle id="Ellipse_38-129" class="st0" cx="320" cy="1829" r="2"/>
	</g>
	<g transform="translate(-246 -1659)">
		<circle id="Ellipse_38-130" class="st0" cx="320" cy="1829" r="2"/>
	</g>
	<g transform="translate(-222 -1659)">
		<circle id="Ellipse_38-131" class="st0" cx="320" cy="1829" r="2"/>
	</g>
	<g transform="translate(-198 -1659)">
		<circle id="Ellipse_38-132" class="st0" cx="320" cy="1829" r="2"/>
	</g>
	<g transform="translate(-174 -1659)">
		<circle id="Ellipse_38-133" class="st0" cx="320" cy="1829" r="2"/>
	</g>
	<g transform="translate(-150 -1659)">
		<circle id="Ellipse_38-134" class="st0" cx="320" cy="1829" r="2"/>
	</g>
	<g transform="translate(-126 -1659)">
		<circle id="Ellipse_38-135" class="st0" cx="320" cy="1829" r="2"/>
	</g>
	<g transform="translate(-102 -1659)">
		<circle id="Ellipse_38-136" class="st0" cx="320" cy="1829" r="2"/>
	</g>
	<g transform="translate(-78 -1659)">
		<circle id="Ellipse_38-137" class="st0" cx="320" cy="1829" r="2"/>
	</g>
	<g transform="translate(-54 -1659)">
		<circle id="Ellipse_38-138" class="st0" cx="320" cy="1829" r="2"/>
	</g>
	<g transform="translate(-30 -1659)">
		<circle id="Ellipse_38-139" class="st0" cx="320" cy="1829" r="2"/>
	</g>
	<g transform="translate(-6 -1659)">
		<circle id="Ellipse_38-140" class="st0" cx="320" cy="1829" r="2"/>
	</g>
	<g transform="translate(18 -1659)">
		<circle id="Ellipse_38-141" class="st0" cx="320" cy="1829" r="2"/>
	</g>
	<g transform="translate(42 -1659)">
		<circle id="Ellipse_38-142" class="st0" cx="320" cy="1829" r="2"/>
	</g>
	<g transform="translate(66 -1659)">
		<circle id="Ellipse_38-143" class="st0" cx="320" cy="1829" r="2"/>
	</g>
	<g transform="translate(90 -1659)">
		<circle id="Ellipse_38-144" class="st0" cx="320" cy="1829" r="2"/>
	</g>
	<g transform="translate(-318 -1635)">
		<circle id="Ellipse_38-145" class="st0" cx="320" cy="1829" r="2"/>
	</g>
	<g transform="translate(-294 -1635)">
		<circle id="Ellipse_38-146" class="st0" cx="320" cy="1829" r="2"/>
	</g>
	<g transform="translate(-270 -1635)">
		<circle id="Ellipse_38-147" class="st0" cx="320" cy="1829" r="2"/>
	</g>
	<g transform="translate(-246 -1635)">
		<circle id="Ellipse_38-148" class="st0" cx="320" cy="1829" r="2"/>
	</g>
	<g transform="translate(-222 -1635)">
		<circle id="Ellipse_38-149" class="st0" cx="320" cy="1829" r="2"/>
	</g>
	<g transform="translate(-198 -1635)">
		<circle id="Ellipse_38-150" class="st0" cx="320" cy="1829" r="2"/>
	</g>
	<g transform="translate(-174 -1635)">
		<circle id="Ellipse_38-151" class="st0" cx="320" cy="1829" r="2"/>
	</g>
	<g transform="translate(-150 -1635)">
		<circle id="Ellipse_38-152" class="st0" cx="320" cy="1829" r="2"/>
	</g>
	<g transform="translate(-126 -1635)">
		<circle id="Ellipse_38-153" class="st0" cx="320" cy="1829" r="2"/>
	</g>
	<g transform="translate(-102 -1635)">
		<circle id="Ellipse_38-154" class="st0" cx="320" cy="1829" r="2"/>
	</g>
	<g transform="translate(-78 -1635)">
		<circle id="Ellipse_38-155" class="st0" cx="320" cy="1829" r="2"/>
	</g>
	<g transform="translate(-54 -1635)">
		<circle id="Ellipse_38-156" class="st0" cx="320" cy="1829" r="2"/>
	</g>
	<g transform="translate(-30 -1635)">
		<circle id="Ellipse_38-157" class="st0" cx="320" cy="1829" r="2"/>
	</g>
	<g transform="translate(-6 -1635)">
		<circle id="Ellipse_38-158" class="st0" cx="320" cy="1829" r="2"/>
	</g>
	<g transform="translate(18 -1635)">
		<circle id="Ellipse_38-159" class="st0" cx="320" cy="1829" r="2"/>
	</g>
	<g transform="translate(42 -1635)">
		<circle id="Ellipse_38-160" class="st0" cx="320" cy="1829" r="2"/>
	</g>
	<g transform="translate(66 -1635)">
		<circle id="Ellipse_38-161" class="st0" cx="320" cy="1829" r="2"/>
	</g>
	<g transform="translate(90 -1635)">
		<circle id="Ellipse_38-162" class="st0" cx="320" cy="1829" r="2"/>
	</g>
	<g transform="translate(-318 -1611)">
		<circle id="Ellipse_38-163" class="st0" cx="320" cy="1829" r="2"/>
	</g>
	<g transform="translate(-294 -1611)">
		<circle id="Ellipse_38-164" class="st0" cx="320" cy="1829" r="2"/>
	</g>
	<g transform="translate(-270 -1611)">
		<circle id="Ellipse_38-165" class="st0" cx="320" cy="1829" r="2"/>
	</g>
	<g transform="translate(-246 -1611)">
		<circle id="Ellipse_38-166" class="st0" cx="320" cy="1829" r="2"/>
	</g>
	<g transform="translate(-222 -1611)">
		<circle id="Ellipse_38-167" class="st0" cx="320" cy="1829" r="2"/>
	</g>
	<g transform="translate(-198 -1611)">
		<circle id="Ellipse_38-168" class="st0" cx="320" cy="1829" r="2"/>
	</g>
	<g transform="translate(-174 -1611)">
		<circle id="Ellipse_38-169" class="st0" cx="320" cy="1829" r="2"/>
	</g>
	<g transform="translate(-150 -1611)">
		<circle id="Ellipse_38-170" class="st0" cx="320" cy="1829" r="2"/>
	</g>
	<g transform="translate(-126 -1611)">
		<circle id="Ellipse_38-171" class="st0" cx="320" cy="1829" r="2"/>
	</g>
	<g transform="translate(-102 -1611)">
		<circle id="Ellipse_38-172" class="st0" cx="320" cy="1829" r="2"/>
	</g>
	<g transform="translate(-78 -1611)">
		<circle id="Ellipse_38-173" class="st0" cx="320" cy="1829" r="2"/>
	</g>
	<g transform="translate(-54 -1611)">
		<circle id="Ellipse_38-174" class="st0" cx="320" cy="1829" r="2"/>
	</g>
	<g transform="translate(-30 -1611)">
		<circle id="Ellipse_38-175" class="st0" cx="320" cy="1829" r="2"/>
	</g>
	<g transform="translate(-6 -1611)">
		<circle id="Ellipse_38-176" class="st0" cx="320" cy="1829" r="2"/>
	</g>
	<g transform="translate(18 -1611)">
		<circle id="Ellipse_38-177" class="st0" cx="320" cy="1829" r="2"/>
	</g>
	<g transform="translate(42 -1611)">
		<circle id="Ellipse_38-178" class="st0" cx="320" cy="1829" r="2"/>
	</g>
	<g transform="translate(66 -1611)">
		<circle id="Ellipse_38-179" class="st0" cx="320" cy="1829" r="2"/>
	</g>
	<g transform="translate(90 -1611)">
		<circle id="Ellipse_38-180" class="st0" cx="320" cy="1829" r="2"/>
	</g>
	<g transform="translate(-318 -1587)">
		<circle id="Ellipse_38-181" class="st0" cx="320" cy="1829" r="2"/>
	</g>
	<g transform="translate(-294 -1587)">
		<circle id="Ellipse_38-182" class="st0" cx="320" cy="1829" r="2"/>
	</g>
	<g transform="translate(-270 -1587)">
		<circle id="Ellipse_38-183" class="st0" cx="320" cy="1829" r="2"/>
	</g>
	<g transform="translate(-246 -1587)">
		<circle id="Ellipse_38-184" class="st0" cx="320" cy="1829" r="2"/>
	</g>
	<g transform="translate(-222 -1587)">
		<circle id="Ellipse_38-185" class="st0" cx="320" cy="1829" r="2"/>
	</g>
	<g transform="translate(-198 -1587)">
		<circle id="Ellipse_38-186" class="st0" cx="320" cy="1829" r="2"/>
	</g>
	<g transform="translate(-174 -1587)">
		<circle id="Ellipse_38-187" class="st0" cx="320" cy="1829" r="2"/>
	</g>
	<g transform="translate(-150 -1587)">
		<circle id="Ellipse_38-188" class="st0" cx="320" cy="1829" r="2"/>
	</g>
	<g transform="translate(-126 -1587)">
		<circle id="Ellipse_38-189" class="st0" cx="320" cy="1829" r="2"/>
	</g>
	<g transform="translate(-102 -1587)">
		<circle id="Ellipse_38-190" class="st0" cx="320" cy="1829" r="2"/>
	</g>
	<g transform="translate(-78 -1587)">
		<circle id="Ellipse_38-191" class="st0" cx="320" cy="1829" r="2"/>
	</g>
	<g transform="translate(-54 -1587)">
		<circle id="Ellipse_38-192" class="st0" cx="320" cy="1829" r="2"/>
	</g>
	<g transform="translate(-30 -1587)">
		<circle id="Ellipse_38-193" class="st0" cx="320" cy="1829" r="2"/>
	</g>
	<g transform="translate(-6 -1587)">
		<circle id="Ellipse_38-194" class="st0" cx="320" cy="1829" r="2"/>
	</g>
	<g transform="translate(18 -1587)">
		<circle id="Ellipse_38-195" class="st0" cx="320" cy="1829" r="2"/>
	</g>
	<g transform="translate(42 -1587)">
		<circle id="Ellipse_38-196" class="st0" cx="320" cy="1829" r="2"/>
	</g>
	<g transform="translate(66 -1587)">
		<circle id="Ellipse_38-197" class="st0" cx="320" cy="1829" r="2"/>
	</g>
	<g transform="translate(90 -1587)">
		<circle id="Ellipse_38-198" class="st0" cx="320" cy="1829" r="2"/>
	</g>
	<g transform="translate(-318 -1563)">
		<circle id="Ellipse_38-199" class="st0" cx="320" cy="1829" r="2"/>
	</g>
	<g transform="translate(-294 -1563)">
		<circle id="Ellipse_38-200" class="st0" cx="320" cy="1829" r="2"/>
	</g>
	<g transform="translate(-270 -1563)">
		<circle id="Ellipse_38-201" class="st0" cx="320" cy="1829" r="2"/>
	</g>
	<g transform="translate(-246 -1563)">
		<circle id="Ellipse_38-202" class="st0" cx="320" cy="1829" r="2"/>
	</g>
	<g transform="translate(-222 -1563)">
		<circle id="Ellipse_38-203" class="st0" cx="320" cy="1829" r="2"/>
	</g>
	<g transform="translate(-198 -1563)">
		<circle id="Ellipse_38-204" class="st0" cx="320" cy="1829" r="2"/>
	</g>
	<g transform="translate(-174 -1563)">
		<circle id="Ellipse_38-205" class="st0" cx="320" cy="1829" r="2"/>
	</g>
	<g transform="translate(-150 -1563)">
		<circle id="Ellipse_38-206" class="st0" cx="320" cy="1829" r="2"/>
	</g>
	<g transform="translate(-126 -1563)">
		<circle id="Ellipse_38-207" class="st0" cx="320" cy="1829" r="2"/>
	</g>
	<g transform="translate(-102 -1563)">
		<circle id="Ellipse_38-208" class="st0" cx="320" cy="1829" r="2"/>
	</g>
	<g transform="translate(-78 -1563)">
		<circle id="Ellipse_38-209" class="st0" cx="320" cy="1829" r="2"/>
	</g>
	<g transform="translate(-54 -1563)">
		<circle id="Ellipse_38-210" class="st0" cx="320" cy="1829" r="2"/>
	</g>
	<g transform="translate(-30 -1563)">
		<circle id="Ellipse_38-211" class="st0" cx="320" cy="1829" r="2"/>
	</g>
	<g transform="translate(-6 -1563)">
		<circle id="Ellipse_38-212" class="st0" cx="320" cy="1829" r="2"/>
	</g>
	<g transform="translate(18 -1563)">
		<circle id="Ellipse_38-213" class="st0" cx="320" cy="1829" r="2"/>
	</g>
	<g transform="translate(42 -1563)">
		<circle id="Ellipse_38-214" class="st0" cx="320" cy="1829" r="2"/>
	</g>
	<g transform="translate(66 -1563)">
		<circle id="Ellipse_38-215" class="st0" cx="320" cy="1829" r="2"/>
	</g>
	<g transform="translate(90 -1563)">
		<circle id="Ellipse_38-216" class="st0" cx="320" cy="1829" r="2"/>
	</g>
	<g transform="translate(-318 -1539)">
		<circle id="Ellipse_38-217" class="st0" cx="320" cy="1829" r="2"/>
	</g>
	<g transform="translate(-294 -1539)">
		<circle id="Ellipse_38-218" class="st0" cx="320" cy="1829" r="2"/>
	</g>
	<g transform="translate(-270 -1539)">
		<circle id="Ellipse_38-219" class="st0" cx="320" cy="1829" r="2"/>
	</g>
	<g transform="translate(-246 -1539)">
		<circle id="Ellipse_38-220" class="st0" cx="320" cy="1829" r="2"/>
	</g>
	<g transform="translate(-222 -1539)">
		<circle id="Ellipse_38-221" class="st0" cx="320" cy="1829" r="2"/>
	</g>
	<g transform="translate(-198 -1539)">
		<circle id="Ellipse_38-222" class="st0" cx="320" cy="1829" r="2"/>
	</g>
	<g transform="translate(-174 -1539)">
		<circle id="Ellipse_38-223" class="st0" cx="320" cy="1829" r="2"/>
	</g>
	<g transform="translate(-150 -1539)">
		<circle id="Ellipse_38-224" class="st0" cx="320" cy="1829" r="2"/>
	</g>
	<g transform="translate(-126 -1539)">
		<circle id="Ellipse_38-225" class="st0" cx="320" cy="1829" r="2"/>
	</g>
	<g transform="translate(-102 -1539)">
		<circle id="Ellipse_38-226" class="st0" cx="320" cy="1829" r="2"/>
	</g>
	<g transform="translate(-78 -1539)">
		<circle id="Ellipse_38-227" class="st0" cx="320" cy="1829" r="2"/>
	</g>
	<g transform="translate(-54 -1539)">
		<circle id="Ellipse_38-228" class="st0" cx="320" cy="1829" r="2"/>
	</g>
	<g transform="translate(-30 -1539)">
		<circle id="Ellipse_38-229" class="st0" cx="320" cy="1829" r="2"/>
	</g>
	<g transform="translate(-6 -1539)">
		<circle id="Ellipse_38-230" class="st0" cx="320" cy="1829" r="2"/>
	</g>
	<g transform="translate(18 -1539)">
		<circle id="Ellipse_38-231" class="st0" cx="320" cy="1829" r="2"/>
	</g>
	<g transform="translate(42 -1539)">
		<circle id="Ellipse_38-232" class="st0" cx="320" cy="1829" r="2"/>
	</g>
	<g transform="translate(66 -1539)">
		<circle id="Ellipse_38-233" class="st0" cx="320" cy="1829" r="2"/>
	</g>
	<g transform="translate(90 -1539)">
		<circle id="Ellipse_38-234" class="st0" cx="320" cy="1829" r="2"/>
	</g>
</g>
</svg>
