<?xml version="1.0" encoding="utf-8"?>
<!-- Generator: Adobe Illustrator 21.0.2, SVG Export Plug-In . SVG Version: 6.00 Build 0)  -->
<svg version="1.1" id="Layer_1" xmlns="http://www.w3.org/2000/svg" xmlns:xlink="http://www.w3.org/1999/xlink" x="0px" y="0px"
	 viewBox="0 0 37.5 37.5" style="enable-background:new 0 0 37.5 37.5;" xml:space="preserve">
<style type="text/css">
	.st0{fill:#FFFFFF;}
</style>
<g>
	<path class="st0" d="M16,22.5c-1.8-0.1-2.9-1.3-3.2-2.4c0.5,0.1,1,0.1,1.5,0l0,0c-1-0.2-1.7-0.7-2.2-1.6c-0.3-0.5-0.5-1.1-0.5-1.8
		c0.5,0.3,1,0.4,1.5,0.4c-0.7-0.5-1.2-1.2-1.4-2.1c-0.2-0.9-0.1-1.7,0.4-2.5c1.8,2.2,4.2,3.4,7,3.6c0-0.1,0-0.3-0.1-0.4
		c-0.1-0.8,0.1-1.5,0.5-2.2c0.5-0.8,1.3-1.4,2.3-1.5c1.1-0.2,2.1,0.1,3,0.9C24.9,13,24.9,13,25,13c0.7-0.2,1.4-0.4,2-0.8l0,0l0,0
		c-0.3,0.8-0.8,1.4-1.5,1.8c0.7-0.1,1.3-0.2,1.9-0.5l0,0c-0.1,0.2-0.3,0.3-0.4,0.5c-0.4,0.4-0.8,0.8-1.2,1.2l-0.1,0.1
		c0,0.5,0,1-0.1,1.5c-0.1,1.1-0.4,2.1-0.9,3c-0.5,1-1.1,1.9-1.8,2.7c-1.3,1.3-2.9,2.2-4.7,2.6c-0.6,0.1-1.3,0.2-1.9,0.2
		c-2,0.1-3.8-0.4-5.4-1.5c0,0,0,0-0.1-0.1c1.2,0.1,2.3,0,3.4-0.5C14.9,23.3,15.5,22.9,16,22.5z"/>
</g>
</svg>
