<?xml version="1.0" encoding="utf-8"?>
<!-- Generator: Adobe Illustrator 21.0.2, SVG Export Plug-In . SVG Version: 6.00 Build 0)  -->
<svg version="1.1" id="Layer_1" xmlns="http://www.w3.org/2000/svg" xmlns:xlink="http://www.w3.org/1999/xlink" x="0px" y="0px"
	 viewBox="0 0 37.5 37.5" style="enable-background:new 0 0 37.5 37.5;" xml:space="preserve">
<style type="text/css">
	.st0{fill:#FFFFFF;}
</style>
<g>
	<path class="st0" d="M23.8,11.4H13.7c-1.3,0-2.3,1-2.3,2.3v10.1c0,1.3,1,2.3,2.3,2.3h10.1c1.3,0,2.3-1,2.3-2.3V13.7
		C26.1,12.4,25.1,11.4,23.8,11.4z M21.9,13.4c0-0.2,0.2-0.4,0.4-0.4h1.8c0.2,0,0.4,0.2,0.4,0.4v1.8c0,0.2-0.2,0.4-0.4,0.4h-1.8
		c-0.2,0-0.4-0.2-0.4-0.4V13.4z M16,17.7c0.4-1.1,1.5-1.9,2.7-1.9s2.3,0.8,2.7,1.9c0.1,0.3,0.2,0.7,0.2,1.1c0,1.6-1.3,2.9-2.9,2.9
		s-2.9-1.3-2.9-2.9C15.8,18.4,15.9,18,16,17.7z M24.6,23.8c0,0.4-0.3,0.7-0.7,0.7H13.7c-0.4,0-0.7-0.3-0.7-0.7v-6.1h1.5
		c-0.1,0.3-0.1,0.7-0.1,1.1c0,2.5,2,4.5,4.5,4.5s4.5-2,4.5-4.5c0-0.4,0-0.7-0.1-1.1h1.5v6.1H24.6z"/>
</g>
</svg>
