<?xml version="1.0" encoding="utf-8"?>
<!-- Generator: Adobe Illustrator 21.0.2, SVG Export Plug-In . SVG Version: 6.00 Build 0)  -->
<svg version="1.1" id="Layer_1" xmlns="http://www.w3.org/2000/svg" xmlns:xlink="http://www.w3.org/1999/xlink" x="0px" y="0px"
	 viewBox="0 0 37.5 37.5" style="enable-background:new 0 0 37.5 37.5;" xml:space="preserve">
<style type="text/css">
	.st0{fill:#FFFFFF;}
</style>
<g>
	<g>
		<path class="st0" d="M12.1,16.2h3.1v10h-3.1V16.2z M13.7,11.2c1,0,1.8,0.8,1.8,1.8s-0.8,1.8-1.8,1.8S11.9,14,11.9,13
			C11.9,12.1,12.7,11.2,13.7,11.2"/>
		<path class="st0" d="M17.2,16.2h3v1.4l0,0c0.4-0.8,1.4-1.6,2.9-1.6c3.2,0,3.7,2.1,3.7,4.8v5.5h-3.1v-4.9c0-1.2,0-2.7-1.6-2.7
			s-1.9,1.3-1.9,2.6v5h-3.1V16.2H17.2z"/>
	</g>
</g>
</svg>
