<?xml version="1.0" encoding="utf-8"?>
<!-- Generator: Adobe Illustrator 21.0.2, SVG Export Plug-In . SVG Version: 6.00 Build 0)  -->
<svg version="1.1" id="Layer_1" xmlns="http://www.w3.org/2000/svg" xmlns:xlink="http://www.w3.org/1999/xlink" x="0px" y="0px"
	 viewBox="0 0 37.5 37.5" style="enable-background:new 0 0 37.5 37.5;" xml:space="preserve">
<style type="text/css">
	.st0{fill:#FFFFFF;}
</style>
<g>
	<path class="st0" d="M21.3,13.4c0.5,0,1,0,1.5,0c0.1,0,0.1,0,0.2,0v-2.6c-0.3,0-0.5-0.1-0.8-0.1c-0.5,0-1,0-1.5,0
		c-0.8,0-1.5,0.2-2.2,0.7s-1.2,1.3-1.3,2.2C17,13.9,17,14.3,17,14.7c0,0.6,0,1.2,0,1.8v0.2h-2.5v2.9H17v7.3h3v-7.3h2.5
		c0.1-1,0.3-1.9,0.4-2.9c-0.2,0-0.4,0-0.6,0c-0.7,0-2.3,0-2.3,0s0-1.4,0-2.1C20.1,13.7,20.6,13.4,21.3,13.4z"/>
</g>
</svg>
